<svg version="1.0" xmlns="http://www.w3.org/2000/svg"
 width="94.000000pt" height="95.000000pt" viewBox="0 0 94.000000 95.000000"
 preserveAspectRatio="xMidYMid meet">

<g transform="translate(0.000000,95.000000) scale(0.100000,-0.100000)"
fill="#000000" stroke="none">
<path d="M402 928 c-193 -27 -353 -191 -383 -391 -30 -202 70 -391 256 -483
229 -113 510 -18 625 211 35 70 35 71 35 205 0 133 0 136 -34 202 -71 141
-201 236 -355 257 -43 6 -78 10 -79 10 -1 -1 -30 -6 -65 -11z m213 -131 c38
-21 31 -21 -29 -1 -73 25 -198 16 -261 -19 -26 -15 -50 -26 -52 -24 -6 7 50
40 92 54 55 18 211 12 250 -10z m-423 -141 c-28 -46 -43 -55 -22 -14 12 23 40
58 46 58 2 0 -9 -20 -24 -44z m627 -71 c0 -5 -8 6 -19 25 -11 19 -19 40 -19
45 0 6 8 -6 19 -25 11 -19 19 -39 19 -45z m-437 -32 c103 -87 88 -85 231 -30
l67 26 0 -76 c0 -82 0 -82 64 -57 13 5 16 -1 16 -25 0 -24 -8 -36 -37 -56 -21
-14 -41 -25 -46 -25 -5 0 -49 35 -99 77 -103 87 -88 85 -230 30 l-68 -26 0 76
c0 82 0 82 -64 57 -13 -5 -16 1 -16 25 0 24 8 36 37 56 21 14 41 25 46 25 5 0
49 -35 99 -77z m-227 30 c-4 -10 -11 -40 -15 -68 -7 -44 -8 -46 -9 -14 -1 35
16 99 26 99 3 0 2 -8 -2 -17z m9 -253 l7 -25 -15 25 c-9 14 -15 32 -15 40 0
13 1 13 8 0 5 -8 12 -26 15 -40z m164 -159 c45 -23 86 -34 140 -40 l77 -8 -66
-2 c-102 -2 -230 53 -260 112 -10 20 -9 19 17 -4 16 -15 57 -41 92 -58z m397
49 c-16 -16 -30 -28 -33 -25 -4 4 47 55 56 55 3 0 -7 -13 -23 -30z m-45 -35
c0 -10 -103 -56 -118 -52 -10 2 0 8 23 15 22 6 49 18 60 26 20 15 35 20 35 11z"/>
</g>
</svg>
